<?xml version="1.0" encoding="UTF-8" standalone="no"?>
<!-- Created with Inkscape (http://www.inkscape.org/) -->

<svg
   width="297.19635mm"
   height="90.744942mm"
   viewBox="0 0 297.19635 90.744942"
   version="1.1"
   id="svg46551"
   inkscape:version="1.1.2 (0a00cf5339, 2022-02-04)"
   sodipodi:docname="funki_logo.svg"
   xmlns:inkscape="http://www.inkscape.org/namespaces/inkscape"
   xmlns:sodipodi="http://sodipodi.sourceforge.net/DTD/sodipodi-0.dtd"
   xmlns="http://www.w3.org/2000/svg"
   xmlns:svg="http://www.w3.org/2000/svg">
  <sodipodi:namedview
     id="namedview46553"
     pagecolor="#ffffff"
     bordercolor="#666666"
     borderopacity="1.0"
     inkscape:pageshadow="2"
     inkscape:pageopacity="0.0"
     inkscape:pagecheckerboard="0"
     inkscape:document-units="mm"
     showgrid="false"
     inkscape:zoom="0.64052329"
     inkscape:cx="361.42324"
     inkscape:cy="185.78559"
     inkscape:window-width="3440"
     inkscape:window-height="1403"
     inkscape:window-x="0"
     inkscape:window-y="0"
     inkscape:window-maximized="1"
     inkscape:current-layer="layer1" />
  <defs
     id="defs46548" />
  <g
     inkscape:label="Layer 1"
     inkscape:groupmode="layer"
     id="layer1"
     transform="translate(25.089121,-92.594151)">
    <g
       id="g46508"
       transform="translate(1065.5209,-7.160936)">
      <path
         id="path174990"
         style="fill:#f6c510;fill-opacity:1;stroke:none;stroke-width:0.396874px;stroke-linecap:butt;stroke-linejoin:miter;stroke-opacity:1"
         d="m -1029.292,121.5135 v 33.69572 c 0,0 -0.1317,13.50718 12.1876,25.62315 6.7834,6.06532 16.1561,9.67282 25.13187,9.66765 8.94896,-0.005 18.72837,-3.78857 25.04579,-9.66765 12.31929,-12.11597 12.18763,-25.62315 12.18763,-25.62315 V 121.5135 h -21.69328 v 33.69572 c 0,0 -0.31598,6.15648 -4.84467,10.52716 -3.91351,3.777 -8.92919,4.42326 -10.73888,4.5323 -1.8097,-0.10905 -6.82537,-0.7553 -10.73886,-4.5323 -4.5287,-4.37068 -4.8439,-10.52716 -4.8439,-10.52716 V 121.5135 Z"
         sodipodi:nodetypes="cccacccccscsccc" />
      <path
         id="path174992"
         style="fill:#12cbd0;fill-opacity:1;stroke:none;stroke-width:0.396874px;stroke-linecap:butt;stroke-linejoin:miter;stroke-opacity:1"
         d="m -954.73911,190.50002 v -35.2908 c 0,0 -0.1317,-11.91213 12.18765,-24.02811 6.78333,-6.06531 16.15611,-9.67277 25.13184,-9.66761 8.94896,0.005 18.72837,3.78854 25.04577,9.66761 12.31929,12.11598 12.18764,24.02811 12.18764,24.02811 v 35.2908 h -21.69327 v -35.2908 c 0,0 -0.31598,-4.56143 -4.84467,-8.93213 -3.91352,-3.77698 -8.92919,-4.42324 -10.73888,-4.53228 -1.8097,0.10905 -6.82537,0.7553 -10.73892,4.53228 -4.52869,4.3707 -4.84389,8.93213 -4.84389,8.93213 v 35.2908 z"
         sodipodi:nodetypes="cccacccccscsccc" />
      <path
         style="fill:#09a687;fill-opacity:1;stroke:none;stroke-width:0.396874px;stroke-linecap:butt;stroke-linejoin:miter;stroke-opacity:1"
         d="m -880.18621,190.50002 h 21.69327 V 99.755087 h -21.69327 z"
         id="path174994"
         sodipodi:nodetypes="ccccc" />
      <path
         style="fill:#eb3f1b;fill-opacity:1;stroke:none;stroke-width:0.396874px;stroke-linecap:butt;stroke-linejoin:miter;stroke-opacity:1"
         d="m -1090.61,190.50002 h 21.6933 v -48.15263 c 0,0 0.158,-10.73466 5.5847,-16.16131 4.7293,-4.72937 9.7759,-4.67259 9.7759,-4.67259 l 24.2641,0.11115 V 99.829187 h -24.2641 c 0,0 -14.1933,0.0954 -25.6927,11.594743 -11.4509,11.4509 -11.3612,30.42305 -11.3612,30.42305 z"
         id="path174996"
         sodipodi:nodetypes="cccsccccscc" />
      <path
         style="fill:#09a687;fill-opacity:1;stroke:none;stroke-width:0.396874px;stroke-linecap:butt;stroke-linejoin:miter;stroke-opacity:1"
         d="m -836.79967,190.50002 h 21.69302 l -21.69302,-35.2908 21.69302,-33.69573 h -21.69302 l -21.69327,33.69573 z"
         id="path174998"
         sodipodi:nodetypes="ccccccc" />
      <path
         style="fill:#007fa0;fill-opacity:1;stroke:none;stroke-width:0.396874px;stroke-linecap:butt;stroke-linejoin:miter;stroke-opacity:1"
         d="m -815.10665,190.50002 h 21.69298 V 121.5135 h -21.69298 z"
         id="path175000"
         sodipodi:nodetypes="ccccc" />
      <path
         style="fill:none;stroke:#646464;stroke-width:3.75;stroke-linecap:butt;stroke-linejoin:miter;stroke-miterlimit:4;stroke-dasharray:none;stroke-opacity:1"
         d="m -1045.9256,144.43739 53.91004,11.56936 74.55288,0.0639 72.1974,-45.46888 h 41.00513"
         id="path175002"
         sodipodi:nodetypes="ccccc" />
      <path
         id="path175004"
         style="fill:#12cbd0;fill-opacity:1;stroke:none;stroke-width:0.396874"
         d="m -906.61618,156.07061 a 10.8465,10.846642 0 0 1 -10.8465,10.84665 10.8465,10.846642 0 0 1 -10.84645,-10.84665 10.8465,10.846642 0 0 1 10.84645,-10.84664 10.8465,10.846642 0 0 1 10.8465,10.84664 z" />
      <path
         id="path175006"
         style="fill:#f6c510;fill-opacity:1;stroke:none;stroke-width:0.396874"
         d="m -981.16909,156.07061 a 10.8465,10.846642 0 0 1 -10.8465,10.84665 10.8465,10.846642 0 0 1 -10.84641,-10.84665 10.8465,10.846642 0 0 1 10.84641,-10.84664 10.8465,10.846642 0 0 1 10.8465,10.84664 z" />
      <path
         id="path175008"
         style="fill:#eb3f1b;fill-opacity:1;stroke:none;stroke-width:0.396874"
         d="m -1035.0792,144.43739 a 10.8465,10.846642 0 0 1 -10.8465,10.84665 10.8465,10.846642 0 0 1 -10.8464,-10.84665 10.8465,10.846642 0 0 1 10.8464,-10.84664 10.8465,10.846642 0 0 1 10.8465,10.84664 z" />
      <path
         id="path175010"
         style="fill:#007fa0;fill-opacity:1;stroke:none;stroke-width:0.396874"
         d="m -793.41367,110.60172 a 10.8465,10.846642 0 0 1 -10.8465,10.84665 10.8465,10.846642 0 0 1 -10.84646,-10.84665 10.8465,10.846642 0 0 1 10.84646,-10.846633 10.8465,10.846642 0 0 1 10.8465,10.846633 z" />
      <path
         id="path175012"
         style="fill:#09a687;fill-opacity:1;stroke:none;stroke-width:0.396874"
         d="m -834.41881,110.60171 a 10.8465,10.846642 0 0 1 -10.84645,10.84666 10.8465,10.846642 0 0 1 -10.84646,-10.84666 10.8465,10.846642 0 0 1 10.84646,-10.846623 10.8465,10.846642 0 0 1 10.84645,10.846623 z" />
    </g>
  </g>
</svg>
